<svg width="29" height="26" viewBox="0 0 29 26" fill="none" xmlns="http://www.w3.org/2000/svg">
<path d="M19.441 10.3718C20.1627 10.0668 21.3066 9.91425 22.0718 9.91425C22.8411 9.91425 23.5864 10.0668 24.3081 10.3718C25.0297 10.6768 25.682 11.1343 26.2649 11.7443C27.4226 13.0271 28.0015 14.4999 28.0015 16.1629C28.0015 17.8258 27.4226 19.2987 26.2649 20.5814L22.0718 25L17.8848 20.5814M22.0718 13.5807C21.4017 13.6016 20.8427 13.8481 20.3946 14.3203C19.9505 14.7882 19.7206 15.3753 19.7047 16.0814C19.7206 16.7917 19.9505 17.3829 20.3946 17.8551C20.8427 18.323 21.4017 18.5654 22.0718 18.5821C22.7459 18.5654 23.3049 18.323 23.749 17.8551C24.1971 17.3829 24.429 16.7917 24.4449 16.0814C24.429 15.3753 24.1971 14.7882 23.749 14.3203C23.3049 13.8481 22.7459 13.6016 22.0718 13.5807Z" stroke="#1E2631"/>
<path d="M16.7372 3.91151C15.8305 2.94101 14.8159 2.21313 13.6934 1.72788C12.5708 1.24263 11.4113 1 10.2147 1C9.02432 1 7.86785 1.24263 6.74532 1.72788C5.62277 2.21313 4.60817 2.94101 3.7015 3.91151C1.9005 5.95223 1 8.29539 1 10.941C1 13.5866 1.9005 15.9297 3.7015 17.9705L10.2147 25L16.7372 17.9705C18.5381 15.9297 19.4387 13.5866 19.4387 10.941C19.4387 8.29539 18.5381 5.95223 16.7372 3.91151ZM10.2147 6.83299C9.17235 6.86622 8.30269 7.25841 7.60573 8.00956C6.91493 8.75405 6.5572 9.68799 6.53252 10.8114C6.5572 11.9414 6.91493 12.882 7.60573 13.6332C8.30269 14.3776 9.17235 14.7632 10.2147 14.7897C11.2633 14.7632 12.1329 14.3776 12.8237 13.6332C13.5207 12.882 13.8815 11.9414 13.9061 10.8114C13.8815 9.68799 13.5207 8.75405 12.8237 8.00956C12.1329 7.25841 11.2633 6.86622 10.2147 6.83299Z" stroke="#1E2631"/>
<path d="M16.1914 18.8286L18.167 20.8857" stroke="#1E2631"/>
</svg>
