<svg width="20" height="24" viewBox="0 0 20 24" fill="none" xmlns="http://www.w3.org/2000/svg">
    <path d="M16.3628 3.66888C15.4777 2.77926 14.4872 2.11204 13.3914 1.66722C12.2955 1.22241 11.1636 1 9.99548 1C8.83342 1 7.70446 1.22241 6.60863 1.66722C5.51279 2.11204 4.52233 2.77926 3.63723 3.66888C1.87908 5.53954 1 7.68744 1 10.1126C1 12.5377 1.87908 14.6856 3.63723 16.5563L9.99548 23L16.3628 16.5563C18.1209 14.6856 19 12.5377 19 10.1126C19 7.68744 18.1209 5.53954 16.3628 3.66888ZM9.99548 6.34691C8.97792 6.37737 8.12895 6.73688 7.44857 7.42543C6.77421 8.10788 6.42499 8.96399 6.4009 9.99377C6.42499 11.0296 6.77421 11.8918 7.44857 12.5804C8.12895 13.2628 8.97792 13.6163 9.99548 13.6406C11.0191 13.6163 11.868 13.2628 12.5424 12.5804C13.2228 11.8918 13.575 11.0296 13.5991 9.99377C13.575 8.96399 13.2228 8.10788 12.5424 7.42543C11.868 6.73688 11.0191 6.37737 9.99548 6.34691Z"
          stroke="white"/>
</svg>
