<svg width="22" height="22" viewBox="0 0 22 22" fill="none" xmlns="http://www.w3.org/2000/svg">
<path d="M5.05291 14.2947C7.03304 16.6527 9.41667 18.5093 12.1373 19.823C13.1731 20.3121 14.5583 20.8923 16.1017 20.9917C16.1974 20.9959 16.2889 21 16.3846 21C17.4204 21 18.2524 20.6436 18.9304 19.9101C18.9346 19.9059 18.9429 19.8976 18.9471 19.8893C19.1883 19.5993 19.4629 19.3382 19.7499 19.0605C19.9455 18.874 20.1451 18.6792 20.3365 18.4803C21.2226 17.5603 21.2226 16.3916 20.3282 15.5006L17.828 13.0099C17.4037 12.5707 16.8962 12.3386 16.3638 12.3386C15.8313 12.3386 15.3196 12.5707 14.8828 13.0058L13.3936 14.4894C13.2563 14.4107 13.1149 14.3402 12.9817 14.2739C12.8153 14.191 12.6614 14.1123 12.5241 14.0253C11.168 13.1674 9.93667 12.0485 8.75941 10.6104C8.16454 9.86034 7.76518 9.23042 7.48647 8.58807C7.8775 8.23581 8.24358 7.86697 8.59717 7.50642C8.72197 7.37795 8.85092 7.24948 8.97988 7.12101C9.42915 6.67344 9.67043 6.15541 9.67043 5.62909C9.67043 5.10278 9.43331 4.58475 8.97988 4.13717L7.74022 2.9022C7.59463 2.75715 7.45735 2.61625 7.31591 2.4712C7.04136 2.18939 6.75432 1.8993 6.47145 1.63821C6.04297 1.21964 5.53962 1 5.00715 1C4.47884 1 3.97133 1.21964 3.52622 1.64235L1.9704 3.19229C1.40465 3.75591 1.08434 4.4397 1.01778 5.23125C0.938741 6.22172 1.12178 7.27435 1.59601 8.54662C2.324 10.5151 3.42222 12.3427 5.05291 14.2947Z" stroke="white"/>
</svg>
