<svg width="24" height="23" viewBox="0 0 24 23" fill="none" xmlns="http://www.w3.org/2000/svg">
<path d="M16.4 8.21429H18C18.2216 8.21429 18.4 8.39746 18.4 8.625C18.4 8.85254 18.2216 9.03571 18 9.03571H16.4C16.1784 9.03571 16 8.85254 16 8.625C16 8.39746 16.1784 8.21429 16.4 8.21429ZM20.4 8.21429H22C22.2216 8.21429 22.4 8.39746 22.4 8.625C22.4 8.85254 22.2216 9.03571 22 9.03571H20.4C20.1784 9.03571 20 8.85254 20 8.625C20 8.39746 20.1784 8.21429 20.4 8.21429ZM6.8 18.0714H17.2C17.4216 18.0714 17.6 18.2546 17.6 18.4821C17.6 18.7097 17.4216 18.8929 17.2 18.8929H6.8C6.5784 18.8929 6.4 18.7097 6.4 18.4821C6.4 18.2546 6.5784 18.0714 6.8 18.0714ZM6.8 15.6071H17.2C17.4216 15.6071 17.6 15.7903 17.6 16.0179C17.6 16.2454 17.4216 16.4286 17.2 16.4286H6.8C6.5784 16.4286 6.4 16.2454 6.4 16.0179C6.4 15.7903 6.5784 15.6071 6.8 15.6071ZM2.8 13.1429H21.2C21.4216 13.1429 21.6 13.326 21.6 13.5536C21.6 13.7811 21.4216 13.9643 21.2 13.9643H2.8C2.5784 13.9643 2.4 13.7811 2.4 13.5536C2.4 13.326 2.5784 13.1429 2.8 13.1429ZM1.2 6.57143C0.5424 6.57143 0 7.12836 0 7.80357V16.8393C0 17.5145 0.5424 18.0714 1.2 18.0714H4V21.7679C4 22.4431 4.5424 23 5.2 23H18.8C19.4576 23 20 22.4431 20 21.7679V18.0714H22.8C23.4576 18.0714 24 17.5145 24 16.8393V7.80357C24 7.12836 23.4576 6.57143 22.8 6.57143H1.2ZM1.2 7.39286H22.8C23.0288 7.39286 23.2 7.56864 23.2 7.80357V16.8393C23.2 17.0742 23.0288 17.25 22.8 17.25H20V15.1964C20 14.651 19.2 14.651 19.2 15.1964V17.595C19.192 17.6394 19.192 17.6837 19.2 17.7281V21.7679C19.2 22.0028 19.0288 22.1786 18.8 22.1786H5.2C4.9712 22.1786 4.8 22.0028 4.8 21.7679V17.7264C4.808 17.6821 4.808 17.6377 4.8 17.5934V15.1964C4.8032 14.9648 4.6256 14.7824 4.4 14.7857C4.1792 14.789 3.9968 14.9697 4 15.1964V17.25H1.2C0.9712 17.25 0.8 17.0742 0.8 16.8393V7.80357C0.8 7.56864 0.9712 7.39286 1.2 7.39286ZM5.2 0C4.5424 0 4 0.556929 4 1.23214V4.51786C4 5.07068 4.8 5.05671 4.8 4.51786V1.23214C4.8 0.997214 4.9712 0.821429 5.2 0.821429H18.8C19.0288 0.821429 19.2 0.997214 19.2 1.23214V4.51786C19.2 5.06821 20 5.05014 20 4.51786V1.23214C20 0.556929 19.4576 0 18.8 0H5.2Z" fill="#1A499A"/>
</svg>
