<svg width="24" height="24" viewBox="0 0 24 24" fill="none" xmlns="http://www.w3.org/2000/svg">
<path d="M10.875 0L10.7812 0.03125L2.78125 1.90625L2 2.09375V22.3438L2.8125 22.4688L10.8125 23.9688L10.9062 24H13V0H10.875ZM15 2V3H19V21H15V22H20V2H15ZM12 1V23L3 21.5V3L12 1ZM9.34375 11C8.97656 11 8.65625 11.4492 8.65625 12C8.65625 12.5508 8.97656 13 9.34375 13C9.71094 13 10 12.5508 10 12C10 11.4492 9.71094 11 9.34375 11Z" fill="#1E2631"/>
<rect x="18" y="6" width="6" height="12" fill="white"/>
<path d="M14.625 12.571L22.0375 12.571L19.7687 15.0622C19.6627 15.1789 19.6116 15.3293 19.6269 15.4804C19.6421 15.6315 19.7224 15.7709 19.85 15.8679C19.9776 15.9649 20.1422 16.0115 20.3075 15.9976C20.4727 15.9837 20.6252 15.9103 20.7313 15.7936L23.8562 12.3653C23.8773 12.3381 23.8961 12.3094 23.9125 12.2796C23.9125 12.251 23.9125 12.2339 23.9562 12.2053C23.9846 12.1398 23.9994 12.0701 24 11.9996C23.9994 11.9292 23.9846 11.8595 23.9562 11.7939C23.9562 11.7654 23.9563 11.7482 23.9125 11.7197C23.8961 11.6899 23.8773 11.6612 23.8562 11.634L20.7313 8.2057C20.6725 8.1412 20.5989 8.08933 20.5157 8.05378C20.4325 8.01823 20.3418 7.99986 20.25 8C20.104 7.99974 19.9624 8.04624 19.85 8.13142C19.7867 8.17938 19.7344 8.23829 19.6961 8.30477C19.6577 8.37125 19.6341 8.44399 19.6265 8.51883C19.619 8.59366 19.6277 8.66913 19.6521 8.74089C19.6765 8.81266 19.7161 8.87932 19.7687 8.93706L22.0375 11.4283H14.625C14.4592 11.4283 14.3003 11.4885 14.1831 11.5956C14.0658 11.7028 14 11.8481 14 11.9996C14 12.1512 14.0658 12.2965 14.1831 12.4037C14.3003 12.5108 14.4592 12.571 14.625 12.571Z" fill="#1E2631"/>
</svg>
