<svg width="24" height="24" viewBox="0 0 24 24" fill="none" xmlns="http://www.w3.org/2000/svg">
<path d="M6.16702 18.1C6.16527 18.3365 6.25479 18.5641 6.41594 18.7328C6.5771 18.9015 6.79673 18.9976 7.02667 19H16.974C17.204 18.9976 17.4236 18.9015 17.5848 18.7328C17.7459 18.5641 17.8354 18.3365 17.8337 18.1V6.10001H6.16702V18.1ZM7.33368 7.30001H16.667V17.8H7.33368V7.30001Z" fill="white"/>
<path d="M9.95817 8.5H8.7915V16H9.95817V8.5Z" fill="white"/>
<path d="M12.5837 8.5H11.417V16H12.5837V8.5Z" fill="white"/>
<path d="M15.2082 8.5H14.0415V16H15.2082V8.5Z" fill="white"/>
<path d="M14.625 3.7V1.9C14.625 1.39533 14.2791 1 13.8375 1H10.1625C9.72092 1 9.375 1.39533 9.375 1.9V3.7H5V4.9H19V3.7H14.625ZM10.5417 2.2H13.4583V3.7H10.5417V2.2Z" fill="white"/>
</svg>
