<svg width="24" height="24" viewBox="0 0 24 24" fill="none" xmlns="http://www.w3.org/2000/svg">
    <path d="M10.875 0L10.7812 0.03125L2.78125 1.90625L2 2.09375V22.3438L2.8125 22.4688L10.8125 23.9688L10.9062 24H13V0H10.875ZM15 2V4H18V20H15V22H20V2H15ZM11 2.03125V22L4 20.6875V3.65625L11 2.03125ZM9.34375 11C8.97656 11 8.65625 11.4492 8.65625 12C8.65625 12.5508 8.97656 13 9.34375 13C9.71094 13 10 12.5508 10 12C10 11.4492 9.71094 11 9.34375 11Z"
          fill="#1E2631"/>
    <rect x="18" y="6" width="6" height="12" fill="white"/>
    <path d="M23.375 11.429H15.9625L18.2313 8.93777C18.3373 8.82109 18.3884 8.67066 18.3731 8.51957C18.3579 8.36848 18.2776 8.22912 18.15 8.13213C18.0224 8.03515 17.8578 7.98849 17.6925 8.00242C17.5273 8.01635 17.3748 8.08973 17.2687 8.20641L14.1438 11.6347C14.1227 11.6619 14.1039 11.6906 14.0875 11.7204C14.0875 11.749 14.0875 11.7661 14.0438 11.7947C14.0154 11.8602 14.0006 11.9299 14 12.0004C14.0006 12.0708 14.0154 12.1405 14.0438 12.2061C14.0438 12.2346 14.0437 12.2518 14.0875 12.2803C14.1039 12.3101 14.1227 12.3388 14.1438 12.366L17.2687 15.7943C17.3275 15.8588 17.4011 15.9107 17.4843 15.9462C17.5675 15.9818 17.6582 16.0001 17.75 16C17.896 16.0003 18.0376 15.9538 18.15 15.8686C18.2133 15.8206 18.2656 15.7617 18.3039 15.6952C18.3423 15.6287 18.3659 15.556 18.3735 15.4812C18.381 15.4063 18.3723 15.3309 18.3479 15.2591C18.3235 15.1873 18.2839 15.1207 18.2313 15.0629L15.9625 12.5717H23.375C23.5408 12.5717 23.6997 12.5115 23.8169 12.4044C23.9342 12.2972 24 12.1519 24 12.0004C24 11.8488 23.9342 11.7035 23.8169 11.5963C23.6997 11.4892 23.5408 11.429 23.375 11.429Z"
          fill="#1E2631"/>
</svg>
