<svg width="24" height="24" viewBox="0 0 24 24" fill="none" xmlns="http://www.w3.org/2000/svg">
<path d="M23.8652 6.49043C23.7257 6.28615 23.367 6.00525 23.1249 6.00525H6.76047L5.5 1.5C5.02776 -0.188411 4.54898 0.00683997 4.08873 0.00683997H0.87749C0.465965 0.00683997 0 0.575963 0 1C0 1.42404 0.589224 1.5 1 1.5H4.08873C4.19068 1.5 4.5 1.5 4.71089 2.29726L8.85387 18.0137C8.94382 18.3449 9.23691 18.5739 9.57048 18.5739H19.6892C20.0033 18.5739 20.2836 18.3712 20.3893 18.0656L23.9559 7.19148C24.0383 6.95625 24.0038 6.69394 23.8644 6.48966L23.8652 6.49043ZM19.6892 17.5H9.57048L7 7.00053H15H23L19.6892 17.5ZM17.6893 20.1316C16.6541 20.1316 15.8153 20.9974 15.8153 22.0661C15.8153 23.1347 16.6541 24.0005 17.6893 24.0005C18.7245 24.0005 19.5633 23.1347 19.5633 22.0661C19.5633 20.9974 18.7245 20.1316 17.6893 20.1316ZM10.943 20.1316C9.90779 20.1316 9.06901 20.9974 9.06901 22.0661C9.06901 23.1347 9.90779 24.0005 10.943 24.0005C11.9782 24.0005 12.817 23.1347 12.817 22.0661C12.817 20.9974 11.9782 20.1316 10.943 20.1316Z" fill="white"/>
</svg>
