<svg width="24" height="24" viewBox="0 0 24 24" fill="none" xmlns="http://www.w3.org/2000/svg">
    <path d="M23.8652 6.4899C23.7257 6.28562 23.367 6.00472 23.1249 6.00472L7.85365 6.00472L6.71644 1.50591C6.2442 -0.182505 4.54898 0.00630783 4.08873 0.00630783H0.87749C0.465965 0.00630783 0 0.581998 0 1.00604C0 1.43007 0.466715 2.00577 0.87749 2.00577H4.08873C4.19068 2.00577 4.47504 2.00577 4.71089 2.29673L8.85387 18.0132C8.94382 18.3444 9.23691 18.5734 9.57048 18.5734H19.6892C20.0033 18.5734 20.2836 18.3707 20.3893 18.065L23.9559 7.19095C24.0383 6.95572 24.0038 6.6934 23.8644 6.48912L23.8652 6.4899ZM18.9412 16.502L10.943 16.502L8.67669 8.0042H15.0499H21.6046L18.9412 16.502ZM17.6893 20.131C16.6541 20.131 15.8153 20.9969 15.8153 22.0655C15.8153 23.1341 16.6541 24 17.6893 24C18.7245 24 19.5633 23.1341 19.5633 22.0655C19.5633 20.9969 18.7245 20.131 17.6893 20.131ZM10.943 20.131C9.90779 20.131 9.06901 20.9969 9.06901 22.0655C9.06901 23.1341 9.90779 24 10.943 24C11.9782 24 12.817 23.1341 12.817 22.0655C12.817 20.9969 11.9782 20.131 10.943 20.131Z"
          fill="#1E2631"/>
</svg>
