<svg width="22" height="14" viewBox="0 0 22 14" fill="none" xmlns="http://www.w3.org/2000/svg">
    <path d="M1.45181 0.957031C1.16767 1.24845 1 1.65295 1 2.09181V11.9082C1 12.3563 1.19227 12.7685 1.49505 13.0612M1.45181 0.957031C1.72592 0.675898 2.10842 0.5 2.55336 0.5H19.4466C19.9075 0.5 20.3296 0.718898 20.617 1.05859M1.45181 0.957031L8.18096 6.80365M20.617 1.05859C20.8544 1.33906 21 1.70187 21 2.09181V11.9082C21 12.3563 20.8077 12.7685 20.505 13.0612M20.617 1.05859L13.8713 6.80365M13.8713 6.80365L11.2265 9.05609C11.0971 9.18876 10.9029 9.18876 10.7734 9.05609L8.18096 6.80365M13.8713 6.80365L20.505 13.0612M20.505 13.0612C20.2251 13.3317 19.8508 13.5 19.4466 13.5H2.55336C2.1492 13.5 1.77491 13.3317 1.49505 13.0612M8.18096 6.80365L1.49505 13.0612"
          stroke="white"/>
</svg>
