<svg width="24" height="24" viewBox="0 0 24 24" fill="none" xmlns="http://www.w3.org/2000/svg">
<path d="M6.16799 18.1C6.16624 18.3365 6.25576 18.5641 6.41692 18.7328C6.57807 18.9015 6.79771 18.9976 7.02765 19H16.975C17.2049 18.9976 17.4246 18.9015 17.5857 18.7328C17.7469 18.5641 17.8364 18.3365 17.8347 18.1V6.10001H6.16799V18.1ZM7.33466 7.30001H16.668V17.8H7.33466V7.30001Z" fill="#D9D9D9"/>
<path d="M9.95964 8.5H8.79297V16H9.95964V8.5Z" fill="#D9D9D9"/>
<path d="M12.5846 8.5H11.418V16H12.5846V8.5Z" fill="#D9D9D9"/>
<path d="M15.2096 8.5H14.043V16H15.2096V8.5Z" fill="#D9D9D9"/>
<path d="M14.625 3.7V1.9C14.625 1.39533 14.2791 1 13.8375 1H10.1625C9.72092 1 9.375 1.39533 9.375 1.9V3.7H5V4.9H19V3.7H14.625ZM10.5417 2.2H13.4583V3.7H10.5417V2.2Z" fill="#D9D9D9"/>
</svg>
