<svg width="31" height="24" viewBox="0 0 31 24" fill="none" xmlns="http://www.w3.org/2000/svg">
<path d="M12.9952 8C12.834 8.00533 12.679 8.07733 12.5649 8.20267L9.2938 11.7093L7.2788 9.54933C6.7146 8.91733 5.8032 9.89333 6.3922 10.4987L8.85112 13.136C9.0954 13.3987 9.4922 13.3987 9.73772 13.136L13.4515 9.15333C13.8607 8.72667 13.5594 8 12.9964 8H12.9952ZM24.18 17.3333C22.475 17.3333 21.08 18.8333 21.08 20.6667C21.08 22.5 22.475 24 24.18 24C25.885 24 27.28 22.5 27.28 20.6667C27.28 18.8333 25.885 17.3333 24.18 17.3333ZM24.18 18.6667C25.2142 18.6667 26.04 19.5547 26.04 20.6667C26.04 21.7787 25.2142 22.6667 24.18 22.6667C23.1458 22.6667 22.32 21.7787 22.32 20.6667C22.32 19.5547 23.1458 18.6667 24.18 18.6667ZM8.06 17.3333C6.355 17.3333 4.96 18.8333 4.96 20.6667C4.96 22.5 6.355 24 8.06 24C9.765 24 11.16 22.5 11.16 20.6667C11.16 18.8333 9.765 17.3333 8.06 17.3333ZM8.06 18.6667C9.09416 18.6667 9.92 19.5547 9.92 20.6667C9.92 21.7787 9.09416 22.6667 8.06 22.6667C7.02584 22.6667 6.2 21.7787 6.2 20.6667C6.2 19.5547 7.02584 18.6667 8.06 18.6667ZM1.86 0C0.84072 0 0 0.904 0 2V16.6667C0 17.7627 0.84072 18.6667 1.86 18.6667H4.34C5.17824 18.68 5.17824 17.32 4.34 17.3333H1.86C1.50536 17.3333 1.24 17.048 1.24 16.6667V2C1.24 1.61867 1.50536 1.33333 1.86 1.33333H17.98C18.3346 1.33333 18.6 1.61867 18.6 2V17.3333H11.78C10.9616 17.3333 10.9765 18.68 11.78 18.6667H20.46C21.2784 18.6667 21.271 17.3333 20.46 17.3333H19.84V5.33333H25.0815L29.76 13.1947V16.6667C29.76 17.048 29.4946 17.3333 29.14 17.3333H27.9C27.089 17.3333 27.089 18.6667 27.9 18.6667H29.14C30.1593 18.6667 31 17.7627 31 16.6667V13C31 12.8733 30.9665 12.7467 30.9033 12.64L25.9433 4.30667C25.8292 4.116 25.6333 4 25.42 4H19.84V2C19.84 0.904 18.9993 0 17.98 0H1.86Z" fill="#1E2631"/>
</svg>
