<svg width="311" height="51" viewBox="0 0 311 51" fill="none" xmlns="http://www.w3.org/2000/svg">
<path d="M43.2418 34.8435H44.1818C44.2516 34.8397 44.3214 34.8501 44.3871 34.874C44.4527 34.8978 44.5128 34.9347 44.5637 34.9824C44.6049 35.0253 44.6369 35.0761 44.6578 35.1317C44.6787 35.1874 44.688 35.2466 44.6851 35.3059C44.6879 35.3688 44.6777 35.4316 44.6551 35.4905C44.6326 35.5494 44.5982 35.6031 44.5541 35.6483C44.4668 35.7285 44.355 35.7774 44.2366 35.7872L44.7859 36.4254H44.4787L43.9857 35.7943H43.4546V36.4254H43.241L43.2418 34.8435ZM43.4554 35.0471V35.5931H44.1445C44.1875 35.5942 44.2303 35.5865 44.2703 35.5707C44.3103 35.5548 44.3466 35.531 44.3771 35.5008C44.4005 35.4742 44.4183 35.4433 44.4295 35.4099C44.4406 35.3764 44.445 35.341 44.4422 35.3059C44.4444 35.2723 44.4397 35.2387 44.4286 35.207C44.4174 35.1753 44.3999 35.1461 44.3771 35.1213C44.3468 35.0947 44.3114 35.0745 44.2731 35.0617C44.2348 35.049 44.1943 35.044 44.154 35.0471H43.4554Z" fill="#1A499A"/>
<path d="M43.9579 37.0881C43.6729 37.0881 43.3943 37.0041 43.1574 36.8468C42.9204 36.6894 42.7357 36.4658 42.6267 36.2041C42.5176 35.9424 42.4891 35.6545 42.5447 35.3767C42.6003 35.099 42.7375 34.8438 42.939 34.6435C43.1406 34.4433 43.3973 34.3069 43.6768 34.2516C43.9563 34.1964 44.246 34.2247 44.5093 34.3331C44.7726 34.4415 44.9977 34.6251 45.156 34.8605C45.3143 35.096 45.3988 35.3729 45.3988 35.6561C45.3984 36.0358 45.2465 36.3998 44.9763 36.6682C44.7062 36.9367 44.3399 37.0877 43.9579 37.0881ZM43.9579 34.4884C43.7255 34.4884 43.4984 34.5569 43.3051 34.6852C43.1119 34.8135 42.9613 34.9959 42.8724 35.2093C42.7835 35.4226 42.7602 35.6574 42.8055 35.8839C42.8509 36.1104 42.9628 36.3185 43.1271 36.4818C43.2914 36.6451 43.5008 36.7563 43.7287 36.8014C43.9566 36.8464 44.1929 36.8233 44.4076 36.7349C44.6223 36.6465 44.8058 36.4969 44.9349 36.3048C45.064 36.1128 45.1329 35.8871 45.1329 35.6561C45.1325 35.3465 45.0085 35.0498 44.7883 34.8309C44.568 34.612 44.2694 34.4888 43.9579 34.4884Z" fill="#1A499A"/>
<path d="M51.3205 25.498C51.3211 30.5419 49.8167 35.4726 46.9975 39.6667C44.1782 43.8607 40.1708 47.1298 35.482 49.0604C30.7932 50.991 25.6337 51.4964 20.6558 50.5127C15.678 49.529 11.1055 47.1004 7.51656 43.5341C3.92763 39.9677 1.48348 35.4238 0.493201 30.4769C-0.497072 25.53 0.0110138 20.4024 1.95321 15.7425C3.8954 11.0826 7.18446 7.09971 11.4044 4.29756C15.6244 1.49541 20.5858 -0.000155998 25.661 1.22045e-08C32.4659 -1.69271e-08 38.9922 2.68632 43.8042 7.46806C48.6162 12.2498 51.3199 18.7353 51.3205 25.498ZM25.661 1.77756C20.9404 1.77724 16.3258 3.16809 12.4006 5.77422C8.47535 8.38035 5.41593 12.0847 3.60918 16.4188C1.80243 20.753 1.32949 25.5222 2.25019 30.1235C3.17088 34.7247 5.44385 38.9513 8.78166 42.2687C12.1195 45.5862 16.3722 47.8455 21.002 48.7609C25.6319 49.6764 30.4309 49.2069 34.7923 47.4117C39.1536 45.6166 42.8814 42.5765 45.5042 38.6759C48.1269 34.7753 49.5269 30.1894 49.5271 25.498C49.5269 19.2074 47.0124 13.1745 42.5368 8.72619C38.0612 4.27785 31.9909 1.77839 25.661 1.77756Z" fill="#1A499A"/>
<path d="M38.0918 37.0883V13.8506C38.0904 12.7915 37.6665 11.7762 36.913 11.0271C36.1596 10.278 35.1381 9.85637 34.0724 9.85449H18.7502C17.2856 9.85449 15.881 10.4327 14.8453 11.4619C13.8097 12.4911 13.2279 13.8871 13.2279 15.3426C13.2279 16.7981 13.8097 18.194 14.8453 19.2233C15.881 20.2525 17.2856 20.8307 18.7502 20.8307H26.8781C28.62 20.8307 30.2906 21.5184 31.5223 22.7425C32.754 23.9665 33.446 25.6267 33.446 27.3579C33.446 29.089 32.754 30.7492 31.5223 31.9733C30.2906 33.1974 28.62 33.885 26.8781 33.885H19.1773C17.4358 33.8834 15.7662 33.1952 14.5347 31.9715C13.3032 30.7478 12.6105 29.0885 12.6086 27.3579V26.6052H8.95673V27.3579C8.95946 29.9376 9.99178 32.4108 11.8272 34.235C13.6626 36.0592 16.1512 37.0853 18.747 37.0883H26.4478C28.0154 37.0868 29.5598 36.7109 30.9506 35.9922C32.3415 35.2735 33.5382 34.2332 34.4399 32.9588V37.0883H38.0918ZM26.4486 17.6322H18.3215C17.7109 17.6322 17.1253 17.3911 16.6935 16.962C16.2618 16.533 16.0192 15.951 16.0192 15.3442C16.0192 14.7373 16.2618 14.1554 16.6935 13.7263C17.1253 13.2972 17.7109 13.0561 18.3215 13.0561H33.6381C33.8506 13.0557 34.0546 13.1392 34.2053 13.2881C34.3559 13.4371 34.4409 13.6394 34.4415 13.8506V21.7617C33.5398 20.4873 32.3431 19.4469 30.9522 18.7282C29.5613 18.0096 28.017 17.6337 26.4494 17.6322" fill="#1A499A"/>
<path d="M33.6381 6.03636H18.3215C17.0712 6.004 15.827 6.22079 14.6623 6.67394C13.4977 7.1271 12.4361 7.80745 11.5403 8.67486C10.6444 9.54227 9.93242 10.5792 9.44627 11.7244C8.96012 12.8697 8.70966 14.1001 8.70966 15.3431C8.70966 16.5861 8.96012 17.8165 9.44627 18.9617C9.93242 20.107 10.6444 21.1439 11.5403 22.0113C12.4361 22.8787 13.4977 23.5591 14.6623 24.0122C15.827 24.4654 17.0712 24.6822 18.3215 24.6498H26.4486C27.1714 24.6498 27.8647 24.9352 28.3758 25.4431C28.8869 25.9511 29.174 26.64 29.174 27.3584C29.174 28.0767 28.8869 28.7656 28.3758 29.2736C27.8647 29.7815 27.1714 30.0669 26.4486 30.0669H18.7478C18.0248 30.0665 17.3316 29.7809 16.8203 29.2729C16.309 28.765 16.0214 28.0761 16.0208 27.3576V26.6049H13.2303V27.3576C13.2319 28.9243 13.8588 30.4265 14.9734 31.5346C16.0879 32.6427 17.5992 33.2663 19.1757 33.2685H26.8765C28.4536 33.2685 29.966 32.646 31.0812 31.5377C32.1963 30.4295 32.8228 28.9264 32.8228 27.3591C32.8228 25.7919 32.1963 24.2888 31.0812 23.1806C29.966 22.0723 28.4536 21.4497 26.8765 21.4497H18.751C17.1211 21.4497 15.558 20.8063 14.4055 19.6609C13.2529 18.5155 12.6055 16.9621 12.6055 15.3423C12.6055 13.7225 13.2529 12.169 14.4055 11.0237C15.558 9.87832 17.1211 9.23486 18.751 9.23486H34.0732C35.3042 9.23653 36.4844 9.72339 37.3547 10.5886C38.2251 11.4539 38.7146 12.6269 38.7158 13.8503V37.088H41.5048V13.8511C41.5027 11.7786 40.6731 9.79164 39.1982 8.32645C37.7232 6.86125 35.7235 6.03761 33.6381 6.03636Z" fill="#1A499A"/>
<path d="M11.9664 38.209C11.918 38.1547 11.8591 38.1107 11.7932 38.0796C11.7273 38.0485 11.6558 38.0309 11.5829 38.028C11.51 38.025 11.4373 38.0368 11.369 38.0625C11.3008 38.0882 11.2385 38.1273 11.1859 38.1775C11.1333 38.2277 11.0914 38.288 11.0628 38.3547C11.0342 38.4214 11.0195 38.4932 11.0195 38.5657C11.0195 38.6382 11.0343 38.7099 11.0629 38.7766C11.0915 38.8433 11.1334 38.9036 11.186 38.9538L12.3578 40.1648C12.4725 40.284 12.5624 40.4244 12.6225 40.5781C12.6825 40.7318 12.7116 40.8958 12.7079 41.0606C12.7042 41.2255 12.6679 41.388 12.601 41.5389C12.5341 41.6897 12.438 41.8261 12.3181 41.94C12.1982 42.054 12.0569 42.1434 11.9022 42.2031C11.7476 42.2628 11.5826 42.2916 11.4167 42.288C11.2509 42.2843 11.0873 42.2482 10.9355 42.1817C10.7837 42.1153 10.6465 42.0197 10.5318 41.9006L8.23428 39.5187L8.75587 39.0224L10.6128 40.9514C10.7121 41.0547 10.8486 41.1146 10.9922 41.1178C11.1359 41.1211 11.275 41.0675 11.3789 40.9688C11.4828 40.8701 11.543 40.7345 11.5463 40.5917C11.5496 40.4489 11.4956 40.3107 11.3964 40.2075L10.227 38.9932C9.99535 38.7534 9.86908 38.432 9.87593 38.0997C9.88278 37.7674 10.0222 37.4514 10.2635 37.2212C10.5048 36.991 10.8282 36.8655 11.1626 36.8723C11.497 36.8791 11.815 37.0177 12.0466 37.2575L14.3933 39.6907L13.8717 40.1869L11.9664 38.209Z" fill="#1A499A"/>
<path d="M20.1935 47.0683L19.1201 46.7796L20.2451 42.6304L21.3184 42.9191L20.1935 47.0683Z" fill="#1A499A"/>
<path d="M25.9159 46.1517C25.9016 46.3616 25.7928 46.3884 25.6777 46.2172L23.6549 43.2325L22.4116 43.1426L22.0941 47.4275L22.8229 47.4796L23.0293 44.7055C23.0444 44.4957 23.1539 44.4688 23.2722 44.6432L25.3197 47.6594L26.5327 47.7494L26.8503 43.4637L26.1215 43.4124L25.9159 46.1517Z" fill="#1A499A"/>
<path d="M36.1293 43.3446C36.2198 43.5331 36.1373 43.6144 35.9507 43.5221L32.6957 41.9394L31.574 42.4767L33.4547 46.3427L34.1121 46.0271L32.895 43.5205C32.8061 43.3351 32.8839 43.2562 33.0728 43.3485L36.3667 44.947L37.4623 44.4231L35.5847 40.5571L34.9258 40.8727L36.1293 43.3446Z" fill="#1A499A"/>
<path d="M14.6847 42.8884C14.7057 42.8543 14.7389 42.8294 14.7776 42.8187C14.8164 42.808 14.8578 42.8123 14.8935 42.8308L16.9076 43.9567C16.9251 43.9665 16.9405 43.9797 16.9529 43.9954C16.9653 44.0112 16.9744 44.0292 16.9798 44.0485C16.9852 44.0678 16.9867 44.0879 16.9842 44.1077C16.9818 44.1276 16.9754 44.1468 16.9655 44.1642L16.1716 45.5662L17.1418 46.1058L19.2575 42.3582L18.285 41.8185L17.4657 43.2726C17.4558 43.29 17.4425 43.3053 17.4267 43.3176C17.4108 43.33 17.3927 43.339 17.3733 43.3444C17.3539 43.3497 17.3336 43.3512 17.3137 43.3488C17.2937 43.3464 17.2744 43.3401 17.2569 43.3302L15.2404 42.2051C15.2227 42.1955 15.2072 42.1824 15.1947 42.1666C15.1822 42.1509 15.1729 42.1328 15.1675 42.1135C15.1621 42.0942 15.1607 42.074 15.1632 42.0541C15.1658 42.0342 15.1723 42.015 15.1824 41.9976L16.0009 40.5436L15.0316 40.0039L12.9167 43.7492L13.8876 44.292L14.6847 42.8884Z" fill="#1A499A"/>
<path d="M29.2812 44.1857L30.2609 45.4946L28.916 45.7518L28.739 46.5131L30.7388 46.1313L31.3525 46.9471L32.5259 46.723L29.6607 42.8965L28.4857 43.1229L27.4537 47.6942L28.2277 47.5467L28.97 44.2543C29.0153 44.0468 29.155 44.0176 29.2812 44.1857Z" fill="#1A499A"/>
<path d="M41.0737 38.9454C41.4 39.3336 41.6006 39.8108 41.6492 40.3143C41.6979 40.8178 41.5923 41.3242 41.3463 41.767C41.1003 42.2099 40.7254 42.5685 40.2708 42.7959C39.8161 43.0233 39.3029 43.1089 38.7985 43.0414C38.2941 42.974 37.8219 42.7566 37.444 42.4178C37.066 42.079 36.7999 41.6346 36.6805 41.1429C36.5611 40.6512 36.594 40.1351 36.7749 39.6623C36.9557 39.1895 37.2761 38.782 37.6941 38.4933C38.2033 38.1083 38.8454 37.9396 39.4795 38.0244C40.1137 38.1091 40.6881 38.4403 41.0769 38.9454M38.1569 39.1529C37.8888 39.2982 37.6714 39.521 37.5334 39.7917C37.3955 40.0625 37.3435 40.3685 37.3843 40.6693C37.4251 40.9701 37.5568 41.2514 37.762 41.4762C37.9672 41.701 38.2362 41.8586 38.5335 41.9281C38.8308 41.9977 39.1423 41.9759 39.4268 41.8657C39.7114 41.7555 39.9556 41.5621 40.1271 41.311C40.2986 41.0599 40.3894 40.763 40.3875 40.4595C40.3856 40.156 40.291 39.8602 40.1163 39.6113C39.9166 39.2935 39.5986 39.0669 39.2316 38.9811C38.8646 38.8952 38.4783 38.957 38.1569 39.1529Z" fill="#1A499A"/>
<path d="M66.7482 28.9671C66.0561 28.9671 65.3924 29.2403 64.903 29.7267C64.4136 30.213 64.1387 30.8727 64.1387 31.5605C64.1387 32.2483 64.4136 32.9079 64.903 33.3943C65.3924 33.8806 66.0561 34.1538 66.7482 34.1538H74.9071C76.5212 34.1538 78.0692 34.7911 79.2105 35.9253C80.3519 37.0596 80.9931 38.598 80.9931 40.2021C80.9931 41.8062 80.3519 43.3446 79.2105 44.4789C78.0692 45.6131 76.5212 46.2504 74.9071 46.2504H58.8784V42.7955H71.8403C72.5324 42.7955 73.1961 42.5222 73.6855 42.0359C74.1749 41.5495 74.4498 40.8899 74.4498 40.2021C74.4498 39.5143 74.1749 38.8547 73.6855 38.3683C73.1961 37.882 72.5324 37.6087 71.8403 37.6087H63.6798C62.8806 37.6087 62.0892 37.4523 61.3508 37.1483C60.6124 36.8444 59.9415 36.3989 59.3764 35.8372C58.8113 35.2756 58.363 34.6089 58.0571 33.875C57.7513 33.1412 57.5938 32.3547 57.5938 31.5605C57.5938 30.7662 57.7513 29.9797 58.0571 29.2459C58.363 28.5121 58.8113 27.8453 59.3764 27.2837C59.9415 26.7221 60.6124 26.2766 61.3508 25.9726C62.0892 25.6687 62.8806 25.5122 63.6798 25.5122H80.0491V28.9671H66.7482Z" fill="#1A499A"/>
<path d="M116.733 25.5122H111.36V46.2511H116.733V25.5122Z" fill="#1A499A"/>
<path d="M137.859 38.7764C137.859 39.7887 137.344 39.9599 136.713 39.1709L125.91 25.5122H119.902V46.2511H123.431V32.8173C123.431 31.8074 123.946 31.6338 124.573 32.4228L135.516 46.2511H141.391V25.5122H137.862L137.859 38.7764Z" fill="#1A499A"/>
<path d="M252.053 25.5122H246.686V46.2511H252.053V25.5122Z" fill="#1A499A"/>
<path d="M273.18 38.7764C273.18 39.7887 272.665 39.9599 272.038 39.1709L261.233 25.5162H255.225V46.2511H258.754V32.8173C258.754 31.8074 259.266 31.6338 259.899 32.4228L270.835 46.2511H276.71V25.5122H273.184L273.18 38.7764Z" fill="#1A499A"/>
<path d="M189.753 38.7764C189.753 39.7887 189.24 39.9599 188.608 39.1709L177.808 25.5122H171.8V46.2511H175.328V32.8173C175.328 31.8074 175.844 31.6338 176.471 32.4228L187.411 46.2488H193.285V25.5122H189.757L189.753 38.7764Z" fill="#1A499A"/>
<path d="M89.9688 38.4853C89.9695 38.2902 90.0475 38.1033 90.1861 37.9652C90.3246 37.827 90.5125 37.7488 90.7087 37.7476H101.877C102.074 37.7476 102.263 37.8253 102.402 37.9636C102.542 38.1019 102.62 38.2896 102.62 38.4853V46.2504H107.99V25.5122H102.62V33.5597C102.62 33.6565 102.601 33.7524 102.563 33.8417C102.526 33.9311 102.471 34.0123 102.402 34.0806C102.333 34.1489 102.251 34.203 102.161 34.2398C102.071 34.2766 101.975 34.2954 101.877 34.2951H90.7072C90.5111 34.2944 90.3233 34.2168 90.1847 34.079C90.046 33.9412 89.9679 33.7546 89.9672 33.5597V25.5122H84.5974V46.2504H89.9688V38.4853Z" fill="#1A499A"/>
<path d="M155.891 31.281L159.338 38.3628H152.721L151.182 41.8201H161.02L163.173 46.2502H168.951L158.868 25.5112H153.088L144.006 46.2502H147.806L154.351 31.311C154.757 30.3824 155.45 30.3689 155.894 31.281" fill="#1A499A"/>
<path d="M220.716 35.8803C220.716 42.0011 215.278 46.9614 208.569 46.9614C201.861 46.9614 196.428 42.0004 196.428 35.8803C196.428 29.7602 201.866 24.8047 208.569 24.8047C215.273 24.8047 220.716 29.7626 220.716 35.8803ZM208.569 28.6896C204.983 28.6896 202.076 31.9078 202.076 35.8803C202.076 39.8528 204.983 43.0765 208.569 43.0765C212.156 43.0765 215.065 39.8559 215.065 35.8803C215.065 31.9047 212.159 28.6896 208.569 28.6896Z" fill="#1A499A"/>
<path d="M308.801 41.8717H306.595V46.2505H308.801C309.385 46.2505 309.946 46.0197 310.359 45.609C310.773 45.1983 311.005 44.6412 311.005 44.0603C311.005 43.4794 310.773 42.9223 310.359 42.5116C309.946 42.1009 309.385 41.8701 308.801 41.8701" fill="#1A499A"/>
<path d="M289.712 25.5122C286.989 25.579 284.4 26.7008 282.498 28.6381C280.596 30.5755 279.532 33.175 279.532 35.8817C279.532 38.5884 280.596 41.1878 282.498 43.1252C284.4 45.0626 286.989 46.1844 289.712 46.2511H301.339V42.442H290.686C287.648 42.442 285.179 39.507 285.179 35.8809C285.179 32.2548 287.648 29.319 290.686 29.319H301.354V25.5122H289.712Z" fill="#1A499A"/>
<path d="M61.3339 19.8767H59.7659V5.89137H62.0801C63.2936 5.77639 64.5133 6.03561 65.5733 6.6338C66.0765 6.99939 66.4837 7.48024 66.7601 8.03554C67.0365 8.59085 67.174 9.20422 67.1611 9.82362C67.169 10.3911 67.053 10.9536 66.8211 11.4723C66.5892 11.991 66.2469 12.4535 65.8178 12.828C64.8482 13.5176 63.6651 13.8458 62.4763 13.7551H61.3339V19.8767ZM61.3339 12.3089H62.3818C64.1181 12.3089 65.5915 11.7897 65.5915 9.78417C65.5915 7.50246 63.7441 7.33835 61.915 7.33835H61.3362L61.3339 12.3089Z" fill="#1A499A"/>
<path d="M69.2427 5.29785L80.2166 16.7238V5.89116H81.7846V20.5069L70.8098 9.1007V19.8765H69.2419L69.2427 5.29785Z" fill="#1A499A"/>
<path d="M84.7085 5.89111H92.006V7.33809H86.2764V11.4928H91.8384V12.9398H86.2764V18.4295H92.006V19.8764H84.7085V5.89111Z" fill="#1A499A"/>
<path d="M96.2017 14.2187C96.2017 15.2578 96.1636 16.4444 96.8178 17.3352C97.1598 17.7546 97.5923 18.0923 98.0832 18.3235C98.5742 18.5547 99.1111 18.6734 99.6543 18.6709C100.177 18.6679 100.693 18.5557 101.168 18.3416C101.644 18.1275 102.069 17.8163 102.416 17.4283C103.163 16.5375 103.107 15.3138 103.107 14.2195V5.89111H104.675V14.6487C104.675 16.1699 104.563 17.3754 103.444 18.5249C102.955 19.0341 102.367 19.4383 101.715 19.7127C101.064 19.9871 100.362 20.1258 99.6543 20.1202C98.3018 20.1262 96.9987 19.6149 96.0151 18.6922C94.7838 17.5237 94.6346 16.2464 94.6346 14.6487V5.89111H96.2025L96.2017 14.2187Z" fill="#1A499A"/>
<path d="M109.279 5.09375L114.392 16.8345L119.525 5.09375L122.383 19.8767H120.777L118.967 10.4169H118.929L114.392 20.4487L109.876 10.4138H109.838L108.028 19.8736H106.423L109.279 5.09375Z" fill="#1A499A"/>
<path d="M126.274 15.9073L124.576 19.8774H122.859L129.355 5.22461L135.682 19.8774H133.946L132.285 15.9081L126.274 15.9073ZM129.317 8.85862L126.909 14.4603H131.668L129.317 8.85862Z" fill="#1A499A"/>
<path d="M139.446 19.8764H137.878V7.33809H134.481V5.89111H142.879V7.33809H139.445L139.446 19.8764Z" fill="#1A499A"/>
<path d="M146.087 5.89111H144.519V19.8764H146.087V5.89111Z" fill="#1A499A"/>
<path d="M159.672 8.95158C159.117 8.37337 158.452 7.91136 157.714 7.5928C156.977 7.27424 156.183 7.10556 155.379 7.09671C153.858 7.13652 152.413 7.76619 151.354 8.85106C150.294 9.93593 149.703 11.3899 149.708 12.9019C149.713 14.414 150.313 15.8642 151.38 16.9423C152.447 18.0204 153.895 18.6408 155.417 18.6709C157.024 18.6282 158.551 17.9626 159.672 16.8161V18.7451C158.45 19.626 156.982 20.106 155.473 20.1179C154.511 20.1279 153.556 19.9482 152.664 19.5891C151.772 19.2301 150.961 18.6988 150.277 18.0261C149.593 17.3534 149.05 16.5526 148.679 15.67C148.309 14.7874 148.118 13.8406 148.118 12.8842C148.118 11.9279 148.309 10.981 148.679 10.0984C149.05 9.21581 149.593 8.415 150.277 7.7423C150.961 7.0696 151.772 6.53836 152.664 6.17931C153.556 5.82026 154.511 5.64053 155.473 5.65052C156.988 5.6302 158.465 6.11339 159.672 7.02333V8.95158Z" fill="#1A499A"/>
<path d="M171.795 19.8764H170.227V7.33809H166.83V5.89111H175.229V7.33809H171.795V19.8764Z" fill="#1A499A"/>
<path d="M190.79 12.9022C190.798 14.3455 190.374 15.7584 189.572 16.9619C188.771 18.1655 187.628 19.1056 186.288 19.663C184.949 20.2204 183.473 20.3701 182.048 20.0931C180.623 19.8161 179.312 19.1249 178.283 18.1071C177.253 17.0892 176.551 15.7905 176.264 14.3756C175.978 12.9606 176.121 11.4931 176.675 10.159C177.229 8.82488 178.169 7.68419 179.376 6.88148C180.583 6.07878 182.002 5.65018 183.455 5.65001C184.416 5.64491 185.369 5.82874 186.259 6.19093C187.149 6.55312 187.958 7.08652 188.64 7.76047C189.321 8.43442 189.862 9.23563 190.231 10.118C190.6 11.0004 190.79 11.9466 190.79 12.9022ZM177.691 12.8841C177.702 14.0154 178.049 15.1181 178.69 16.0535C179.33 16.9888 180.235 17.7149 181.29 18.1402C182.345 18.5656 183.503 18.6712 184.618 18.4437C185.733 18.2163 186.755 17.666 187.556 16.8622C188.357 16.0583 188.901 15.0369 189.119 13.9265C189.337 12.8161 189.22 11.6664 188.781 10.6223C188.343 9.57812 187.604 8.68622 186.656 8.05889C185.709 7.43157 184.596 7.09688 183.458 7.09698C181.923 7.11051 180.455 7.72634 179.375 8.81031C178.295 9.89427 177.69 11.3585 177.691 12.8841Z" fill="#1A499A"/>
<path d="M206.871 12.9022C206.879 14.3455 206.455 15.7584 205.653 16.9619C204.852 18.1655 203.709 19.1056 202.37 19.663C201.03 20.2204 199.554 20.3701 198.129 20.0931C196.704 19.8161 195.393 19.1249 194.364 18.1071C193.334 17.0892 192.632 15.7905 192.346 14.3756C192.059 12.9606 192.202 11.4931 192.756 10.159C193.31 8.82488 194.25 7.68419 195.457 6.88148C196.664 6.07878 198.083 5.65018 199.536 5.65001C200.497 5.64491 201.45 5.82874 202.34 6.19093C203.23 6.55312 204.039 7.08652 204.721 7.76047C205.402 8.43442 205.943 9.23563 206.312 10.118C206.681 11.0004 206.871 11.9466 206.871 12.9022ZM193.772 12.8841C193.783 14.0156 194.131 15.1186 194.771 16.054C195.412 16.9895 196.317 17.7155 197.372 18.1407C198.427 18.5659 199.586 18.6712 200.701 18.4433C201.816 18.2154 202.839 17.6646 203.639 16.8602C204.44 16.0558 204.984 15.0338 205.201 13.9231C205.418 12.8123 205.3 11.6625 204.861 10.6184C204.422 9.57439 203.682 8.68287 202.734 8.05621C201.785 7.42955 200.672 7.09579 199.533 7.09698C197.998 7.11051 196.531 7.72634 195.451 8.81031C194.371 9.89427 193.765 11.3585 193.766 12.8841" fill="#1A499A"/>
<path d="M210.56 18.4295H214.443V19.8764H208.993V5.89111H210.561L210.56 18.4295Z" fill="#1A499A"/>
<path d="M222.371 8.61786C222.163 8.15443 221.822 7.76261 221.39 7.49187C220.958 7.22114 220.456 7.08363 219.945 7.09672C219.648 7.0834 219.351 7.12932 219.071 7.23176C218.792 7.33421 218.536 7.49112 218.319 7.69327C218.101 7.89542 217.927 8.13873 217.805 8.40889C217.684 8.67904 217.618 8.9706 217.612 9.2664C217.612 10.4719 218.862 11.0282 219.814 11.455L220.747 11.8629C222.573 12.6606 224.125 13.5695 224.125 15.7951C224.105 16.8906 223.676 17.9396 222.921 18.738C222.166 19.5365 221.139 20.0274 220.04 20.1152C218.941 20.2031 217.849 19.8816 216.975 19.2134C216.101 18.5452 215.509 17.5779 215.313 16.4997L216.843 16.0737C216.912 16.7738 217.238 17.4243 217.757 17.9026C218.276 18.3809 218.953 18.6539 219.661 18.6702C220.408 18.6874 221.131 18.4103 221.673 17.8995C222.215 17.3886 222.532 16.6855 222.554 15.9435C222.554 14.3111 221.266 13.7549 219.959 13.1616L219.101 12.7907C217.459 12.0491 216.04 11.2128 216.04 9.21117C216.04 7.04149 217.887 5.64975 219.978 5.64975C220.727 5.64016 221.465 5.83811 222.107 6.22145C222.75 6.60479 223.273 7.15837 223.617 7.82021L222.371 8.61786Z" fill="#1A499A"/>
</svg>
