<svg width="392" height="64" viewBox="0 0 392 64" fill="none" xmlns="http://www.w3.org/2000/svg">
    <path d="M54.5042 43.7251H55.689C55.7769 43.7203 55.865 43.7333 55.9477 43.7632C56.0305 43.7932 56.1062 43.8395 56.1703 43.8993C56.2223 43.9532 56.2627 44.0169 56.289 44.0867C56.3153 44.1565 56.327 44.2309 56.3234 44.3053C56.3268 44.3842 56.314 44.4631 56.2856 44.5369C56.2572 44.6108 56.2139 44.6782 56.1583 44.735C56.0482 44.8356 55.9073 44.8969 55.758 44.9092L56.4505 45.7102H56.0632L55.4418 44.9181H54.7723V45.7102H54.5032L54.5042 43.7251ZM54.7733 43.9805V44.6656H55.6419C55.6962 44.667 55.7502 44.6574 55.8006 44.6375C55.851 44.6176 55.8967 44.5878 55.9351 44.5498C55.9646 44.5165 55.987 44.4777 56.0011 44.4357C56.0152 44.3937 56.0207 44.3494 56.0172 44.3053C56.0199 44.2632 56.0141 44.221 56 44.1812C55.9859 44.1413 55.9638 44.1048 55.9351 44.0736C55.8969 44.0403 55.8523 44.0149 55.804 43.9989C55.7558 43.9829 55.7047 43.9767 55.6539 43.9805H54.7733Z"
          fill="white"/>
    <path d="M55.4068 46.5419C55.0476 46.5419 54.6964 46.4365 54.3977 46.239C54.0991 46.0416 53.8663 45.7609 53.7288 45.4325C53.5913 45.1042 53.5554 44.7429 53.6255 44.3943C53.6955 44.0457 53.8685 43.7255 54.1225 43.4742C54.3765 43.2229 54.7001 43.0517 55.0524 42.9824C55.4047 42.913 55.7699 42.9486 56.1018 43.0846C56.4337 43.2207 56.7173 43.451 56.9169 43.7465C57.1164 44.042 57.223 44.3894 57.223 44.7449C57.2224 45.2213 57.0309 45.6781 56.6904 46.015C56.3499 46.3518 55.8883 46.5413 55.4068 46.5419ZM55.4068 43.2795C55.1139 43.2795 54.8275 43.3655 54.584 43.5265C54.3404 43.6875 54.1506 43.9163 54.0385 44.1841C53.9264 44.4519 53.8971 44.7465 53.9542 45.0307C54.0114 45.315 54.1524 45.5761 54.3596 45.781C54.5667 45.9859 54.8306 46.1255 55.1178 46.182C55.4051 46.2386 55.7029 46.2095 55.9735 46.0986C56.2441 45.9877 56.4754 45.7999 56.6382 45.5589C56.8009 45.318 56.8877 45.0347 56.8877 44.7449C56.8872 44.3564 56.731 43.984 56.4534 43.7093C56.1758 43.4346 55.7994 43.2801 55.4068 43.2795Z"
          fill="white"/>
    <path d="M64.6869 31.9975C64.6877 38.327 62.7915 44.5146 59.2379 49.7778C55.6844 55.0409 50.6333 59.1433 44.7233 61.566C38.8133 63.9887 32.31 64.6229 26.0357 63.3885C19.7614 62.1541 13.9979 59.1064 9.47425 54.631C4.95058 50.1556 1.86985 44.4534 0.621656 38.2455C-0.626535 32.0377 0.0138823 25.603 2.46192 19.7553C4.90995 13.9076 9.05565 8.90944 14.3747 5.39302C19.6938 1.87659 25.9473 -0.000195763 32.3445 1.53155e-08C40.9217 -2.12418e-08 49.1477 3.37106 55.213 9.37168C61.2783 15.3723 64.6861 23.511 64.6869 31.9975ZM32.3445 2.23066C26.3944 2.23027 20.5778 3.97565 15.6303 7.24608C10.6828 10.5165 6.82651 15.1651 4.54919 20.604C2.27187 26.0429 1.67576 32.0279 2.83625 37.802C3.99674 43.5761 6.8617 48.8801 11.0688 53.0431C15.276 57.2062 20.6363 60.0414 26.472 61.1902C32.3077 62.339 38.3567 61.7498 43.8539 59.4971C49.3512 57.2444 54.0499 53.4294 57.3557 48.5345C60.6616 43.6396 62.4262 37.8847 62.4264 31.9975C62.4262 24.1035 59.2568 16.5327 53.6155 10.9505C47.9742 5.36828 40.3229 2.23171 32.3445 2.23066Z"
          fill="white"/>
    <path d="M48.0129 46.5419V17.3809C48.011 16.0518 47.4767 14.7777 46.527 13.8377C45.5774 12.8977 44.2898 12.3685 42.9465 12.3661H23.6337C21.7876 12.3661 20.0172 13.0917 18.7118 14.3833C17.4064 15.6749 16.6731 17.4266 16.6731 19.2532C16.6731 21.0797 17.4064 22.8315 18.7118 24.123C20.0172 25.4146 21.7876 26.1402 23.6337 26.1402H33.8785C36.0741 26.1402 38.1797 27.0032 39.7323 28.5393C41.2848 30.0754 42.157 32.1588 42.157 34.3312C42.157 36.5035 41.2848 38.5869 39.7323 40.123C38.1797 41.6591 36.0741 42.5221 33.8785 42.5221H24.172C21.977 42.52 19.8725 41.6564 18.3203 40.1208C16.768 38.5852 15.8949 36.503 15.8926 34.3312V33.3866H11.2895V34.3312C11.2929 37.5684 12.5941 40.6721 14.9076 42.9613C17.2211 45.2505 20.3578 46.5382 23.6297 46.5419H33.3361C35.3121 46.54 37.2586 46.0683 39.0117 45.1664C40.7649 44.2646 42.2733 42.959 43.4098 41.3598V46.5419H48.0129ZM33.3371 22.1264H23.0933C22.3237 22.1264 21.5856 21.8239 21.0414 21.2854C20.4971 20.747 20.1914 20.0167 20.1914 19.2551C20.1914 18.4936 20.4971 17.7633 21.0414 17.2249C21.5856 16.6864 22.3237 16.3839 23.0933 16.3839H42.3991C42.667 16.3834 42.9241 16.4881 43.114 16.675C43.3039 16.862 43.411 17.1159 43.4118 17.3809V27.3085C42.2753 25.7092 40.7669 24.4037 39.0137 23.5018C37.2606 22.6 35.3141 22.1283 33.3381 22.1264"
          fill="white"/>
    <path d="M42.3991 7.57513H23.0933C21.5174 7.53452 19.9491 7.80657 18.4811 8.37524C17.0131 8.9439 15.6751 9.79767 14.5459 10.8862C13.4167 11.9747 12.5193 13.2759 11.9065 14.7131C11.2938 16.1503 10.9781 17.6943 10.9781 19.2542C10.9781 20.814 11.2938 22.358 11.9065 23.7952C12.5193 25.2324 13.4167 26.5336 14.5459 27.6221C15.6751 28.7106 17.0131 29.5644 18.4811 30.1331C19.9491 30.7017 21.5174 30.9738 23.0933 30.9332H33.3371C34.2482 30.9332 35.122 31.2913 35.7662 31.9287C36.4105 32.5661 36.7724 33.4307 36.7724 34.3321C36.7724 35.2336 36.4105 36.0981 35.7662 36.7356C35.122 37.373 34.2482 37.7311 33.3371 37.7311H23.6307C22.7194 37.7306 21.8456 37.3722 21.2011 36.7348C20.5566 36.0973 20.1942 35.2328 20.1934 34.3312V33.3866H16.6761V34.3312C16.6782 36.2973 17.4683 38.1824 18.8732 39.5729C20.278 40.9635 22.1829 41.746 24.17 41.7489H33.8765C35.8643 41.7489 37.7706 40.9676 39.1762 39.5768C40.5818 38.1861 41.3715 36.2999 41.3715 34.3331C41.3715 32.3664 40.5818 30.4801 39.1762 29.0894C37.7706 27.6987 35.8643 26.9174 33.8765 26.9174H23.6347C21.5803 26.9174 19.61 26.1099 18.1573 24.6726C16.7047 23.2353 15.8885 21.2859 15.8885 19.2532C15.8885 17.2205 16.7047 15.2711 18.1573 13.8337C19.61 12.3964 21.5803 11.5889 23.6347 11.5889H42.9475C44.4992 11.591 45.9867 12.202 47.0838 13.2878C48.1808 14.3736 48.7978 15.8456 48.7994 17.3809V46.5419H52.3147V17.3819C52.3121 14.7811 51.2664 12.2876 49.4073 10.449C47.5483 8.61029 45.0277 7.5767 42.3991 7.57513Z"
          fill="white"/>
    <path d="M15.083 47.9488C15.0221 47.8806 14.9478 47.8254 14.8648 47.7864C14.7817 47.7473 14.6915 47.7253 14.5997 47.7216C14.5078 47.7179 14.4161 47.7327 14.3301 47.7649C14.2441 47.7971 14.1656 47.8463 14.0993 47.9093C14.033 47.9723 13.9802 48.0479 13.9442 48.1316C13.9081 48.2153 13.8895 48.3054 13.8895 48.3964C13.8896 48.4873 13.9081 48.5774 13.9442 48.6611C13.9803 48.7448 14.033 48.8204 14.0994 48.8834L15.5764 50.4032C15.7209 50.5527 15.8343 50.7289 15.91 50.9218C15.9857 51.1147 16.0223 51.3204 16.0176 51.5273C16.013 51.7341 15.9672 51.9381 15.8829 52.1274C15.7986 52.3168 15.6774 52.4879 15.5263 52.6309C15.3752 52.7739 15.1971 52.8861 15.0022 52.961C14.8072 53.0359 14.5993 53.0721 14.3902 53.0675C14.1811 53.0629 13.975 53.0176 13.7837 52.9342C13.5923 52.8508 13.4194 52.7309 13.2748 52.5814L10.3789 49.5923L11.0363 48.9695L13.3769 51.3903C13.502 51.5199 13.6741 51.595 13.8552 51.5991C14.0362 51.6031 14.2116 51.5359 14.3425 51.4121C14.4735 51.2883 14.5494 51.1181 14.5535 50.9389C14.5577 50.7597 14.4897 50.5862 14.3646 50.4566L12.8906 48.9329C12.5986 48.632 12.4395 48.2286 12.4481 47.8116C12.4567 47.3946 12.6325 46.998 12.9366 46.7092C13.2407 46.4203 13.6484 46.2629 14.0699 46.2714C14.4914 46.2799 14.8922 46.4538 15.1841 46.7547L18.1421 49.8081L17.4846 50.4309L15.083 47.9488Z"
          fill="white"/>
    <path d="M25.4529 59.0664L24.1 58.704L25.5179 53.4972L26.8708 53.8596L25.4529 59.0664Z" fill="white"/>
    <path d="M32.6657 57.9159C32.6477 58.1793 32.5106 58.213 32.3655 57.9981L29.8158 54.2526L28.2487 54.1398L27.8485 59.5169L28.7671 59.5822L29.0273 56.1011C29.0463 55.8378 29.1844 55.8041 29.3335 56.0229L31.9142 59.808L33.4432 59.9209L33.8435 54.5427L32.9248 54.4784L32.6657 57.9159Z"
          fill="white"/>
    <path d="M45.5392 54.3932C45.6533 54.6298 45.5492 54.7318 45.3141 54.616L41.2113 52.6299L39.7974 53.3041L42.168 58.1555L42.9965 57.7595L41.4625 54.614C41.3504 54.3813 41.4485 54.2823 41.6867 54.3982L45.8384 56.4041L47.2193 55.7467L44.8528 50.8953L44.0222 51.2913L45.5392 54.3932Z"
          fill="white"/>
    <path d="M18.5093 53.8209C18.5357 53.7782 18.5776 53.7469 18.6265 53.7335C18.6753 53.7201 18.7275 53.7255 18.7725 53.7487L21.3111 55.1615C21.3332 55.1739 21.3526 55.1904 21.3682 55.2102C21.3839 55.2299 21.3954 55.2526 21.4022 55.2767C21.409 55.3009 21.4109 55.3262 21.4078 55.3511C21.4047 55.376 21.3967 55.4001 21.3842 55.4219L20.3835 57.1813L21.6063 57.8585L24.2731 53.1556L23.0473 52.4784L22.0146 54.3031C22.0021 54.325 21.9854 54.3442 21.9654 54.3596C21.9455 54.3751 21.9226 54.3865 21.8982 54.3932C21.8737 54.3999 21.8482 54.4018 21.823 54.3987C21.7978 54.3957 21.7735 54.3878 21.7514 54.3754L19.2098 52.9635C19.1875 52.9514 19.1679 52.9349 19.1521 52.9152C19.1363 52.8955 19.1247 52.8728 19.1179 52.8485C19.1111 52.8243 19.1093 52.7989 19.1125 52.774C19.1157 52.749 19.1239 52.7249 19.1367 52.7031L20.1684 50.8784L18.9466 50.2012L16.2808 54.9011L17.5046 55.5823L18.5093 53.8209Z"
          fill="white"/>
    <path d="M36.9075 55.4486L38.1423 57.0912L36.4472 57.414L36.224 58.3694L38.7447 57.8902L39.5182 58.9139L40.9972 58.6328L37.3858 53.8309L35.9048 54.115L34.604 59.8515L35.5796 59.6664L36.5152 55.5348C36.5723 55.2744 36.7484 55.2378 36.9075 55.4486Z"
          fill="white"/>
    <path d="M51.7714 48.8725C52.1826 49.3597 52.4355 49.9585 52.4968 50.5904C52.5581 51.2222 52.425 51.8577 52.1149 52.4134C51.8049 52.9691 51.3324 53.4192 50.7593 53.7045C50.1863 53.9899 49.5394 54.0973 48.9036 54.0126C48.2678 53.928 47.6727 53.6552 47.1963 53.23C46.7199 52.8049 46.3844 52.2472 46.2339 51.6302C46.0834 51.0131 46.1249 50.3655 46.3529 49.7721C46.5809 49.1788 46.9847 48.6675 47.5115 48.3052C48.1534 47.822 48.9627 47.6104 49.762 47.7167C50.5613 47.8231 51.2854 48.2387 51.7754 48.8725M48.0949 49.1329C47.757 49.3153 47.4829 49.5948 47.309 49.9346C47.1351 50.2744 47.0696 50.6584 47.121 51.0358C47.1725 51.4133 47.3385 51.7664 47.5971 52.0484C47.8558 52.3305 48.1949 52.5283 48.5696 52.6155C48.9443 52.7028 49.3369 52.6755 49.6955 52.5372C50.0542 52.3989 50.362 52.1562 50.5782 51.8411C50.7944 51.526 50.9089 51.1534 50.9065 50.7725C50.904 50.3917 50.7848 50.0205 50.5646 49.7081C50.3129 49.3093 49.9121 49.025 49.4495 48.9173C48.9869 48.8095 48.5 48.887 48.0949 49.1329Z"
          fill="white"/>
    <path d="M84.1328 36.3509C83.2605 36.3509 82.4238 36.6938 81.807 37.3041C81.1902 37.9144 80.8436 38.7422 80.8436 39.6053C80.8436 40.4685 81.1902 41.2962 81.807 41.9065C82.4238 42.5169 83.2605 42.8597 84.1328 42.8597H94.4166C96.4511 42.8597 98.4023 43.6594 99.8409 45.0828C101.28 46.5062 102.088 48.4367 102.088 50.4497C102.088 52.4627 101.28 54.3933 99.8409 55.8167C98.4023 57.24 96.4511 58.0397 94.4166 58.0397H74.2132V53.7041H90.5511C91.4234 53.7041 92.26 53.3613 92.8769 52.7509C93.4937 52.1406 93.8403 51.3128 93.8403 50.4497C93.8403 49.5866 93.4937 48.7588 92.8769 48.1485C92.26 47.5382 91.4234 47.1953 90.5511 47.1953H80.2652C79.2579 47.1953 78.2604 46.999 77.3297 46.6176C76.399 46.2361 75.5533 45.6771 74.841 44.9723C74.1286 44.2675 73.5636 43.4308 73.1781 42.5099C72.7926 41.589 72.5942 40.6021 72.5942 39.6053C72.5942 38.6086 72.7926 37.6216 73.1781 36.7008C73.5636 35.7799 74.1286 34.9432 74.841 34.2384C75.5533 33.5336 76.399 32.9745 77.3297 32.5931C78.2604 32.2117 79.2579 32.0154 80.2652 32.0154H100.898V36.3509H84.1328Z"
          fill="white"/>
    <path d="M147.136 32.0154H140.364V58.0407H147.136V32.0154Z" fill="white"/>
    <path d="M173.764 48.6606C173.764 49.9309 173.115 50.1458 172.32 49.1557L158.703 32.0154H151.13V58.0407H155.578V41.1825C155.578 39.9152 156.228 39.6974 157.018 40.6875L170.811 58.0407H178.216V32.0154H173.768L173.764 48.6606Z"
          fill="white"/>
    <path d="M317.7 32.0154H310.935V58.0407H317.7V32.0154Z" fill="white"/>
    <path d="M344.33 48.6606C344.33 49.9309 343.681 50.1458 342.89 49.1557L329.271 32.0203H321.698V58.0407H326.146V41.1825C326.146 39.9152 326.792 39.6974 327.589 40.6875L341.374 58.0407H348.779V32.0154H344.335L344.33 48.6606Z"
          fill="white"/>
    <path d="M239.174 48.6606C239.174 49.9309 238.528 50.1458 237.731 49.1557L224.119 32.0154H216.546V58.0407H220.993V41.1825C220.993 39.9152 221.642 39.6974 222.433 40.6875L236.222 58.0377H243.627V32.0154H239.179L239.174 48.6606Z"
          fill="white"/>
    <path d="M113.401 48.2953C113.402 48.0505 113.5 47.816 113.675 47.6426C113.85 47.4693 114.086 47.3711 114.334 47.3696H128.411C128.659 47.3696 128.897 47.4671 129.073 47.6406C129.249 47.8142 129.348 48.0497 129.348 48.2953V58.0397H136.116V32.0154H129.348V42.1142C129.348 42.2357 129.323 42.3559 129.276 42.4681C129.229 42.5802 129.16 42.6821 129.073 42.7678C128.986 42.8535 128.883 42.9214 128.769 42.9676C128.656 43.0138 128.534 43.0374 128.411 43.037H114.332C114.085 43.0362 113.848 42.9387 113.673 42.7658C113.499 42.5929 113.4 42.3587 113.399 42.1142V32.0154H106.631V58.0397H113.401V48.2953Z"
          fill="white"/>
    <path d="M196.493 39.2548L200.837 48.1418H192.498L190.557 52.4804H202.958L205.671 58.0397H212.954L200.246 32.0144H192.96L181.512 58.0397H186.303L194.552 39.2925C195.063 38.1271 195.937 38.1103 196.496 39.2548"
          fill="white"/>
    <path d="M278.202 45.026C278.202 52.7071 271.347 58.9318 262.891 58.9318C254.436 58.9318 247.587 52.7061 247.587 45.026C247.587 37.346 254.442 31.1272 262.891 31.1272C271.341 31.1272 278.202 37.3489 278.202 45.026ZM262.891 36.0024C258.371 36.0024 254.707 40.041 254.707 45.026C254.707 50.0111 258.37 54.0566 262.891 54.0566C267.412 54.0566 271.079 50.0151 271.079 45.026C271.079 40.037 267.415 36.0024 262.891 36.0024Z"
          fill="white"/>
    <path d="M389.228 52.5447H386.448V58.0397H389.228C389.965 58.0397 390.671 57.7501 391.192 57.2347C391.713 56.7192 392.006 56.0202 392.006 55.2912C392.006 54.5623 391.713 53.8632 391.192 53.3478C390.671 52.8323 389.965 52.5427 389.228 52.5427"
          fill="white"/>
    <path d="M365.167 32.0154C361.735 32.0991 358.472 33.5069 356.075 35.9381C353.678 38.3693 352.336 41.6314 352.336 45.028C352.336 48.4246 353.678 51.6867 356.075 54.118C358.472 56.5492 361.735 57.9569 365.167 58.0407H379.823V53.2606H366.395C362.566 53.2606 359.454 49.5775 359.454 45.027C359.454 40.4766 362.566 36.7925 366.395 36.7925H379.842V32.0154H365.167Z"
          fill="white"/>
    <path d="M77.3083 24.9432H75.332V7.39296H78.2489C79.7784 7.24866 81.3158 7.57396 82.6518 8.32462C83.2862 8.78341 83.7993 9.38683 84.1477 10.0837C84.4961 10.7805 84.6695 11.5502 84.6532 12.3275C84.6632 13.0397 84.517 13.7456 84.2247 14.3965C83.9324 15.0473 83.5009 15.6278 82.96 16.0978C81.7379 16.9632 80.2467 17.375 78.7482 17.2611H77.3083V24.9432ZM77.3083 15.4463H78.6292C80.8176 15.4463 82.6748 14.7948 82.6748 12.278C82.6748 9.41471 80.3463 9.20877 78.0408 9.20877H77.3113L77.3083 15.4463Z"
          fill="white"/>
    <path d="M87.2769 6.64841L101.109 20.9868V7.39295H103.085V25.7343L89.2522 11.4206V24.9432H87.2759L87.2769 6.64841Z"
          fill="white"/>
    <path d="M106.771 7.39296H115.969V9.20877H108.747V14.4225H115.758V16.2384H108.747V23.1274H115.969V24.9432H106.771V7.39296Z"
          fill="white"/>
    <path d="M121.257 17.8433C121.257 19.1472 121.209 20.6363 122.034 21.7541C122.465 22.2804 123.01 22.7043 123.629 22.9944C124.248 23.2845 124.925 23.4335 125.609 23.4303C126.268 23.4266 126.918 23.2858 127.518 23.0171C128.117 22.7484 128.653 22.3579 129.091 21.8709C130.032 20.7531 129.961 19.2175 129.961 17.8443V7.39296H131.938V18.3829C131.938 20.2918 131.796 21.8046 130.386 23.2472C129.77 23.8861 129.029 24.3934 128.207 24.7377C127.386 25.082 126.501 25.2561 125.609 25.2491C123.904 25.2566 122.262 24.615 121.022 23.4571C119.47 21.9908 119.282 20.3878 119.282 18.3829V7.39296H121.258L121.257 17.8433Z"
          fill="white"/>
    <path d="M137.74 6.39198L144.186 21.1254L150.655 6.39198L154.257 24.9432H152.234L149.951 13.0721H149.904L144.186 25.661L138.493 13.0681H138.446L136.164 24.9392H134.141L137.74 6.39198Z"
          fill="white"/>
    <path d="M159.163 19.9621L157.022 24.9442H154.858L163.045 6.55634L171.02 24.9442H168.832L166.739 19.9631L159.163 19.9621ZM162.997 11.1167L159.962 18.1463H165.961L162.997 11.1167Z"
          fill="white"/>
    <path d="M175.765 24.9432H173.788V9.20877H169.506V7.39296H180.092V9.20877H175.764L175.765 24.9432Z" fill="white"/>
    <path d="M184.135 7.39296H182.159V24.9432H184.135V7.39296Z" fill="white"/>
    <path d="M201.259 11.2335C200.559 10.5079 199.72 9.92812 198.791 9.52835C197.862 9.12859 196.861 8.91691 195.848 8.9058C193.931 8.95576 192.11 9.74594 190.774 11.1073C189.438 12.4688 188.693 14.2933 188.699 16.1908C188.706 18.0883 189.462 19.9081 190.807 21.261C192.151 22.6139 193.978 23.3925 195.895 23.4303C197.921 23.3768 199.846 22.5414 201.259 21.1026V23.5234C199.719 24.6289 197.868 25.2311 195.966 25.2461C194.753 25.2587 193.55 25.0331 192.426 24.5826C191.301 24.132 190.279 23.4653 189.416 22.6212C188.554 21.777 187.87 20.772 187.403 19.6645C186.936 18.5569 186.695 17.3687 186.695 16.1686C186.695 14.9684 186.936 13.7802 187.403 12.6726C187.87 11.5651 188.554 10.5601 189.416 9.71596C190.279 8.87178 191.301 8.20513 192.426 7.75456C193.55 7.30399 194.753 7.07845 195.966 7.09098C197.875 7.06548 199.738 7.67184 201.259 8.81372V11.2335Z"
          fill="white"/>
    <path d="M216.539 24.9432H214.562V9.20877H210.281V7.39296H220.868V9.20877H216.539V24.9432Z" fill="white"/>
    <path d="M240.482 16.1908C240.491 18.0019 239.957 19.775 238.946 21.2854C237.936 22.7957 236.496 23.9754 234.807 24.6749C233.119 25.3744 231.259 25.5623 229.462 25.2147C227.666 24.8671 226.014 23.9997 224.716 22.7224C223.419 21.4451 222.533 19.8153 222.173 18.0397C221.812 16.2641 221.992 14.4225 222.69 12.7483C223.388 11.0741 224.573 9.64269 226.094 8.63537C227.616 7.62805 229.405 7.09021 231.235 7.08999C232.447 7.0836 233.649 7.31428 234.77 7.76879C235.892 8.2233 236.912 8.89267 237.771 9.73841C238.63 10.5842 239.312 11.5896 239.777 12.6969C240.242 13.8043 240.482 14.9917 240.482 16.1908ZM223.971 16.1681C223.984 17.5877 224.423 18.9716 225.23 20.1453C226.037 21.319 227.177 22.2302 228.507 22.764C229.836 23.2977 231.296 23.4303 232.701 23.1449C234.107 22.8595 235.396 22.1689 236.406 21.1602C237.415 20.1514 238.101 18.8696 238.375 17.4761C238.65 16.0827 238.502 14.64 237.95 13.3297C237.397 12.0194 236.465 10.9001 235.271 10.1129C234.077 9.32567 232.674 8.90567 231.239 8.9058C229.305 8.92278 227.455 9.69559 226.093 11.0559C224.732 12.4161 223.969 14.2536 223.971 16.1681Z"
          fill="white"/>
    <path d="M260.751 16.1908C260.76 18.0019 260.226 19.775 259.216 21.2854C258.206 22.7957 256.765 23.9754 255.077 24.6749C253.388 25.3744 251.528 25.5623 249.732 25.2147C247.935 24.8671 246.283 23.9997 244.986 22.7224C243.688 21.4451 242.803 19.8153 242.442 18.0397C242.081 16.2641 242.262 14.4225 242.96 12.7483C243.658 11.0741 244.843 9.64269 246.364 8.63537C247.885 7.62805 249.674 7.09021 251.505 7.08999C252.717 7.0836 253.918 7.31428 255.04 7.76879C256.161 8.2233 257.181 8.89267 258.04 9.73841C258.899 10.5842 259.581 11.5896 260.046 12.6969C260.512 13.8043 260.751 14.9917 260.751 16.1908ZM244.24 16.1681C244.254 17.588 244.692 18.9721 245.5 20.146C246.307 21.3199 247.448 22.231 248.778 22.7646C250.108 23.2982 251.568 23.4303 252.974 23.1444C254.379 22.8584 255.668 22.1671 256.677 21.1577C257.687 20.1482 258.372 18.8658 258.646 17.4719C258.92 16.078 258.77 14.635 258.217 13.3249C257.664 12.0147 256.731 10.8959 255.536 10.1095C254.341 9.32314 252.937 8.9043 251.502 8.9058C249.567 8.92278 247.717 9.69559 246.356 11.0559C244.994 12.4161 244.231 14.2536 244.233 16.1681"
          fill="white"/>
    <path d="M265.401 23.1274H270.294V24.9432H263.426V7.39296H265.402L265.401 23.1274Z" fill="white"/>
    <path d="M280.288 10.8147C280.026 10.2331 279.596 9.74142 279.051 9.40168C278.507 9.06193 277.873 8.88938 277.23 8.9058C276.855 8.88909 276.481 8.9467 276.129 9.07527C275.776 9.20383 275.454 9.40074 275.18 9.65441C274.906 9.90809 274.686 10.2134 274.533 10.5524C274.38 10.8915 274.297 11.2573 274.289 11.6285C274.289 13.1414 275.865 13.8394 277.065 14.375L278.241 14.8869C280.542 15.8879 282.498 17.0285 282.498 19.8215C282.473 21.1962 281.932 22.5125 280.981 23.5145C280.029 24.5165 278.735 25.1325 277.35 25.2427C275.964 25.353 274.587 24.9496 273.486 24.1111C272.385 23.2725 271.638 22.0587 271.391 20.7056L273.319 20.171C273.407 21.0496 273.817 21.8659 274.471 22.4662C275.126 23.0664 275.98 23.409 276.872 23.4293C277.813 23.4509 278.725 23.1033 279.408 22.4622C280.091 21.8212 280.49 20.9388 280.518 20.0076C280.518 17.9591 278.895 17.2611 277.248 16.5166L276.166 16.0512C274.096 15.1206 272.308 14.0711 272.308 11.5592C272.308 8.8365 274.636 7.08999 277.271 7.08999C278.216 7.07796 279.145 7.32637 279.955 7.80743C280.765 8.28848 281.424 8.98317 281.858 9.81371L280.288 10.8147Z"
          fill="white"/>
</svg>
